<!DOCTYPE svg PUBLIC "-//W3C//DTD SVG 1.1//EN" "http://www.w3.org/Graphics/SVG/1.1/DTD/svg11.dtd">
<!-- Uploaded to: SVG Repo, www.svgrepo.com, Transformed by: SVG Repo Mixer Tools -->
<svg width="800px" height="800px" viewBox="0 -5 32 32" version="1.1" xmlns="http://www.w3.org/2000/svg" xmlns:xlink="http://www.w3.org/1999/xlink" fill="#000000">
<g id="SVGRepo_bgCarrier" stroke-width="0"/>
<g id="SVGRepo_tracerCarrier" stroke-linecap="round" stroke-linejoin="round"/>
<g id="SVGRepo_iconCarrier"> <title>menu</title> <desc>Created with Sketch.</desc> <defs> <linearGradient x1="50%" y1="0%" x2="50%" y2="99.0447173%" id="linearGradient-1"> <stop stop-color="#8b8c92" offset="0%"> </stop> <stop stop-color="#000000" offset="100%"> </stop> </linearGradient> </defs> <g id="icons" stroke="none" stroke-width="1" fill="none" fill-rule="evenodd"> <g id="ui-gambling-website-lined-icnos-casinoshunter" transform="translate(-994.000000, -1911.000000)" fill="url(#linearGradient-1)" fill-rule="nonzero"> <g id="4" transform="translate(50.000000, 1871.000000)"> <path d="M974,58 C975.104569,58 976,58.8954305 976,60 C976,61.1045695 975.104569,62 974,62 L946,62 C944.895431,62 944,61.1045695 944,60 C944,58.8954305 944.895431,58 946,58 L974,58 Z M974,49 C975.104569,49 976,49.8954305 976,51 C976,52.1045695 975.104569,53 974,53 L946,53 C944.895431,53 944,52.1045695 944,51 C944,49.8954305 944.895431,49 946,49 L974,49 Z M974,40 C975.104569,40 976,40.8954305 976,42 C976,43.1045695 975.104569,44 974,44 L946,44 C944.895431,44 944,43.1045695 944,42 C944,40.8954305 944.895431,40 946,40 L974,40 Z" id="menu"> </path> </g> </g> </g> </g>
</svg>